<svg width="24" height="24" viewBox="0 0 24 24" fill="none" xmlns="http://www.w3.org/2000/svg">
<g id="gift" clip-path="url(#clip0_15_480)">
<path id="Vector" d="M21.75 6.75H20.5266C20.8172 6.18281 21 5.55469 21 4.875C21 2.60156 19.1484 0.75 16.875 0.75C14.925 0.75 13.6641 1.74844 12.0469 3.95156C10.4297 1.74844 9.16875 0.75 7.21875 0.75C4.94531 0.75 3.09375 2.60156 3.09375 4.875C3.09375 5.55469 3.27187 6.18281 3.56719 6.75H2.25C1.00781 6.75 0 7.75781 0 9V15C0 15.4125 0.3375 15.75 0.75 15.75H1.5V20.7844C1.5 22.1437 2.60625 23.25 3.96562 23.25H20.0344C21.3937 23.25 22.5 22.1437 22.5 20.7844V15.75H23.25C23.6625 15.75 24 15.4125 24 15V9C24 7.75781 22.9922 6.75 21.75 6.75ZM10.875 21H3.96562C3.84844 21 3.75 20.9062 3.75 20.7844V15.75H9V13.5H2.25V9H10.875V21ZM7.21406 6.75C6.17812 6.75 5.33906 5.91094 5.33906 4.875C5.33906 3.83906 6.17812 3 7.21406 3C8.24531 3 8.97188 3.35625 11.1562 6.60938L11.25 6.75H7.21406ZM12.9328 6.60938C15.1172 3.35625 15.8438 3 16.875 3C17.9109 3 18.75 3.83906 18.75 4.875C18.75 5.91094 17.9109 6.75 16.875 6.75H12.8391L12.9328 6.60938ZM21.75 13.5H15V15.75H20.25V20.7844C20.25 20.9016 20.1562 21 20.0344 21H13.125V9H21.75V13.5Z" fill="#0076C5"/>
</g>
<defs>
<clipPath id="clip0_15_480">
<rect width="24" height="24" fill="white"/>
</clipPath>
</defs>
</svg>
