<svg width="24" height="24" viewBox="0 0 24 24" fill="none" xmlns="http://www.w3.org/2000/svg">
<g id="tools" clip-path="url(#clip0_15_478)">
<path id="Vector" d="M10.5 4.50469V6.79219L11.8922 8.18438C11.5734 6.55313 12.0563 4.88906 13.2281 3.71719C14.1797 2.76563 15.4406 2.25469 16.7438 2.25469H16.8L14.1094 4.93594L14.8172 9.18281L19.0641 9.89062L21.75 7.20469C21.7641 8.53125 21.2531 9.80625 20.2875 10.7719C19.8516 11.2078 19.3406 11.5406 18.7969 11.7844C18.8813 11.8594 18.9797 11.9203 19.0594 12L20.4984 13.4391C20.9906 13.1438 21.4594 12.7875 21.8766 12.3656C23.6625 10.5797 24.3937 7.94531 23.7844 5.49375C23.6437 4.92188 23.2031 4.47188 22.6406 4.3125C22.0688 4.15312 21.4594 4.31719 21.0469 4.73438L18.2953 7.48125L16.7766 7.22812L16.5234 5.70938L19.2703 2.9625C19.6875 2.54531 19.8469 1.93594 19.6875 1.36875C19.5328 0.801563 19.0781 0.360937 18.5062 0.220312C16.0125 -0.398438 13.4484 0.314063 11.6344 2.12344C11.1562 2.60156 10.7672 3.14062 10.4484 3.7125L10.5 3.75V4.50469ZM4.96875 21.2812C4.36875 21.8813 3.31406 21.8813 2.71406 21.2812C2.41406 20.9813 2.24531 20.5781 2.24531 20.1562C2.24531 19.7297 2.40938 19.3312 2.71406 19.0312L9.01406 12.7313L7.425 11.1422L1.125 17.4375C0.398438 18.1641 0 19.1297 0 20.1562C0 21.1828 0.398438 22.1484 1.125 22.875C1.85156 23.6016 2.81719 24 3.84375 24C4.87031 24 5.83594 23.6016 6.5625 22.875L11.2922 18.1453C10.8375 17.4047 10.5797 16.5609 10.5562 15.7031L4.96875 21.2812ZM23.4891 18.5484L18 13.0594C16.9172 11.9766 15.3 11.7656 13.9969 12.4078L9 7.41094V4.5L3 0L0 3L4.5 9H7.41094L12.4078 13.9969C11.7703 15.3 11.9766 16.9172 13.0594 18L18.5484 23.4891C19.2328 24.1734 20.3391 24.1734 21.0187 23.4891L23.4891 21.0187C24.1688 20.3344 24.1688 19.2281 23.4891 18.5484Z" fill="#0076C5"/>
</g>
<defs>
<clipPath id="clip0_15_478">
<rect width="24" height="24" fill="white"/>
</clipPath>
</defs>
</svg>
